<svg xmlns="http://www.w3.org/2000/svg" viewBox="0 0 16 16" width="16" height="16">
  <defs>
    <filter id="glow">
      <feGaussianBlur stdDeviation="0.8" result="blur"/>
      <feMerge>
        <feMergeNode in="blur"/>
        <feMergeNode in="SourceGraphic"/>
      </feMerge>
    </filter>
  </defs>
  <g filter="url(#glow)">
    <!-- 8-bit pixel heart -->
    <rect x="2" y="3" width="1" height="1" fill="#ff36ab"/>
    <rect x="3" y="3" width="1" height="1" fill="#ff36ab"/>
    <rect x="4" y="3" width="1" height="1" fill="#ff36ab"/>
    <rect x="8" y="3" width="1" height="1" fill="#ff36ab"/>
    <rect x="9" y="3" width="1" height="1" fill="#ff36ab"/>
    <rect x="10" y="3" width="1" height="1" fill="#ff36ab"/>
    <rect x="1" y="4" width="1" height="1" fill="#ff36ab"/>
    <rect x="2" y="4" width="1" height="1" fill="#ff6bc4"/>
    <rect x="3" y="4" width="1" height="1" fill="#ff6bc4"/>
    <rect x="4" y="4" width="1" height="1" fill="#ff36ab"/>
    <rect x="5" y="4" width="1" height="1" fill="#ff36ab"/>
    <rect x="7" y="4" width="1" height="1" fill="#ff36ab"/>
    <rect x="8" y="4" width="1" height="1" fill="#ff36ab"/>
    <rect x="9" y="4" width="1" height="1" fill="#ff36ab"/>
    <rect x="10" y="4" width="1" height="1" fill="#ff36ab"/>
    <rect x="11" y="4" width="1" height="1" fill="#ff36ab"/>
    <rect x="1" y="5" width="1" height="1" fill="#ff36ab"/>
    <rect x="2" y="5" width="1" height="1" fill="#ff6bc4"/>
    <rect x="3" y="5" width="1" height="1" fill="#ff36ab"/>
    <rect x="4" y="5" width="1" height="1" fill="#ff36ab"/>
    <rect x="5" y="5" width="1" height="1" fill="#ff36ab"/>
    <rect x="6" y="5" width="1" height="1" fill="#ff36ab"/>
    <rect x="7" y="5" width="1" height="1" fill="#ff36ab"/>
    <rect x="8" y="5" width="1" height="1" fill="#ff36ab"/>
    <rect x="9" y="5" width="1" height="1" fill="#ff36ab"/>
    <rect x="10" y="5" width="1" height="1" fill="#ff36ab"/>
    <rect x="11" y="5" width="1" height="1" fill="#ff36ab"/>
    <rect x="2" y="6" width="1" height="1" fill="#ff36ab"/>
    <rect x="3" y="6" width="1" height="1" fill="#ff36ab"/>
    <rect x="4" y="6" width="1" height="1" fill="#ff36ab"/>
    <rect x="5" y="6" width="1" height="1" fill="#ff36ab"/>
    <rect x="6" y="6" width="1" height="1" fill="#ff36ab"/>
    <rect x="7" y="6" width="1" height="1" fill="#ff36ab"/>
    <rect x="8" y="6" width="1" height="1" fill="#ff36ab"/>
    <rect x="9" y="6" width="1" height="1" fill="#ff36ab"/>
    <rect x="10" y="6" width="1" height="1" fill="#ff36ab"/>
    <rect x="3" y="7" width="1" height="1" fill="#ff36ab"/>
    <rect x="4" y="7" width="1" height="1" fill="#ff36ab"/>
    <rect x="5" y="7" width="1" height="1" fill="#ff36ab"/>
    <rect x="6" y="7" width="1" height="1" fill="#ff36ab"/>
    <rect x="7" y="7" width="1" height="1" fill="#ff36ab"/>
    <rect x="8" y="7" width="1" height="1" fill="#ff36ab"/>
    <rect x="9" y="7" width="1" height="1" fill="#ff36ab"/>
    <rect x="4" y="8" width="1" height="1" fill="#ff36ab"/>
    <rect x="5" y="8" width="1" height="1" fill="#ff36ab"/>
    <rect x="6" y="8" width="1" height="1" fill="#ff36ab"/>
    <rect x="7" y="8" width="1" height="1" fill="#ff36ab"/>
    <rect x="8" y="8" width="1" height="1" fill="#ff36ab"/>
    <rect x="5" y="9" width="1" height="1" fill="#ff36ab"/>
    <rect x="6" y="9" width="1" height="1" fill="#ff36ab"/>
    <rect x="7" y="9" width="1" height="1" fill="#ff36ab"/>
    <rect x="6" y="10" width="1" height="1" fill="#ff36ab"/>
  </g>
</svg>
